<svg width="24" height="24" viewBox="0 0 24 24" fill="none" xmlns="http://www.w3.org/2000/svg">
<path fill-rule="evenodd" clip-rule="evenodd" d="M3.00299 19.593V21.2535C3.00299 23.211 2.84249 23.916 5.22599 23.916H18.591C20.973 23.916 20.811 23.2095 20.811 21.2535V19.593H3.00299Z" fill="black"/>
<path fill-rule="evenodd" clip-rule="evenodd" d="M6 4.5H7.4025V9.108H6V4.5Z" fill="black"/>
<path fill-rule="evenodd" clip-rule="evenodd" d="M10.5 4.5H12V8.9535H10.5V4.5Z" fill="black"/>
<path fill-rule="evenodd" clip-rule="evenodd" d="M16.5 4.5H17.985V8.7765H16.5V4.5Z" fill="black"/>
<path fill-rule="evenodd" clip-rule="evenodd" d="M7.44753 1.46247C7.59753 2.07147 7.36053 2.77197 6.79203 2.83497C6.26103 2.89497 5.85453 2.20947 6.26253 1.52997C6.68103 0.839966 6.79203 0.0899658 6.79203 0.0899658C6.79203 0.0899658 7.27203 0.730466 7.44753 1.46247Z" fill="black"/>
<path fill-rule="evenodd" clip-rule="evenodd" d="M11.907 1.5315C12.0645 2.1705 11.8155 2.9085 11.2035 2.9745C10.632 3.0375 10.1955 2.316 10.6365 1.6035C11.0865 0.876001 11.2035 0.088501 11.2035 0.088501C11.2035 0.088501 11.7165 0.763501 11.907 1.5315Z" fill="black"/>
<path fill-rule="evenodd" clip-rule="evenodd" d="M17.961 1.53452C18.129 2.17352 17.862 2.90852 17.214 2.97452C16.608 3.03752 16.143 2.31752 16.6125 1.60502C16.908 1.14423 17.1123 0.630912 17.214 0.0930176C17.214 0.0930176 17.7585 0.768018 17.961 1.53452Z" fill="black"/>
<path fill-rule="evenodd" clip-rule="evenodd" d="M4.71897 12.6555C5.34147 12.6555 6.24297 12.0645 6.50847 11.8575C6.51597 11.8485 7.59897 10.8315 8.91147 10.8315C10.218 10.8315 11.346 11.8395 11.3925 11.883C11.6355 12.093 12.4395 12.6555 13.1535 12.6555C13.9965 12.6555 14.8155 11.898 14.8155 11.898C14.8755 11.841 15.996 10.8315 17.3475 10.8315C18.705 10.8315 19.7865 11.8485 19.8315 11.892C20.073 12.099 20.5275 12.4035 20.937 12.555C20.8905 10.6035 19.9935 9.04498 17.673 9.04498H6.38847C4.30197 9.04498 3.36147 10.3005 3.15747 11.9685C3.49497 12.219 4.18947 12.6555 4.71897 12.6555Z" fill="black"/>
<path fill-rule="evenodd" clip-rule="evenodd" d="M19.0755 14.2035C19.0485 14.1795 18.24 13.425 17.349 13.425C16.4505 13.425 15.6015 14.1855 15.591 14.1945C15.552 14.229 14.4645 15.2445 13.155 15.2445C11.8575 15.2445 10.6935 14.244 10.644 14.2005C10.3995 13.9815 9.62098 13.425 8.91298 13.425C8.06998 13.425 7.25698 14.1795 7.24648 14.1855C7.07398 14.3235 5.84848 15.2445 4.72048 15.2445C4.14148 15.2445 3.56248 15.006 3.11548 14.757V17.9175H20.949V15.1965C20.0325 15.006 19.1835 14.295 19.0755 14.2035Z" fill="black"/>
<path fill-rule="evenodd" clip-rule="evenodd" d="M0 21H23.7765V23.9025H0V21Z" fill="black"/>
</svg>
