<svg width="24" height="24" viewBox="0 0 24 24" fill="none" xmlns="http://www.w3.org/2000/svg">
<path fill-rule="evenodd" clip-rule="evenodd" d="M24 12C24 18.6274 18.6274 24 12 24C5.37256 24 0 18.6274 0 12C0 5.37256 5.37256 0 12 0C18.6274 0 24 5.37256 24 12ZM20 12C20 16.4183 16.4183 20 12 20C7.58173 20 4 16.4183 4 12C4 7.58173 7.58173 4 12 4C16.4183 4 20 7.58173 20 12ZM12 17C14.7614 17 17 14.7614 17 12C17 9.23859 14.7614 7 12 7C9.23859 7 7 9.23859 7 12C7 14.7614 9.23859 17 12 17Z" fill="#C4C4C4"/>
</svg>
