<svg width="40" height="40" viewBox="0 0 40 40" fill="none" xmlns="http://www.w3.org/2000/svg">
<path d="M20 11.9883C15.5664 11.9883 11.9883 15.5664 11.9883 20C11.9883 24.4336 15.5664 28.0117 20 28.0117C24.4336 28.0117 28.0118 24.4336 28.0118 20C28.0118 15.5664 24.4336 11.9883 20 11.9883ZM20 25.207C17.1328 25.207 14.793 22.8672 14.793 20C14.793 17.1328 17.1328 14.793 20 14.793C22.8672 14.793 25.2071 17.1328 25.2071 20C25.2071 22.8672 22.8672 25.207 20 25.207ZM28.3399 9.79297C27.3047 9.79297 26.4688 10.6289 26.4688 11.6641C26.4688 12.6992 27.3047 13.5352 28.3399 13.5352C29.375 13.5352 30.211 12.7031 30.211 11.6641C30.2113 11.4183 30.1631 11.1748 30.0692 10.9477C29.9753 10.7205 29.8374 10.5141 29.6636 10.3403C29.4898 10.1665 29.2834 10.0287 29.0563 9.93477C28.8291 9.84085 28.5857 9.79266 28.3399 9.79297ZM35.6172 20C35.6172 17.8438 35.6368 15.707 35.5157 13.5547C35.3946 11.0547 34.8243 8.83594 32.9961 7.00781C31.1641 5.17578 28.9493 4.60938 26.4493 4.48828C24.293 4.36719 22.1563 4.38672 20.0039 4.38672C17.8477 4.38672 15.711 4.36719 13.5586 4.48828C11.0586 4.60938 8.83988 5.17969 7.01175 7.00781C5.17972 8.83985 4.61331 11.0547 4.49222 13.5547C4.37113 15.7109 4.39066 17.8477 4.39066 20C4.39066 22.1523 4.37113 24.293 4.49222 26.4453C4.61331 28.9453 5.18363 31.1641 7.01175 32.9922C8.84378 34.8242 11.0586 35.3906 13.5586 35.5117C15.7149 35.6328 17.8516 35.6133 20.0039 35.6133C22.1602 35.6133 24.2969 35.6328 26.4493 35.5117C28.9493 35.3906 31.168 34.8203 32.9961 32.9922C34.8282 31.1602 35.3946 28.9453 35.5157 26.4453C35.6407 24.293 35.6172 22.1563 35.6172 20ZM32.1797 29.2109C31.8946 29.9219 31.5508 30.4531 31 31C30.4493 31.5508 29.9219 31.8945 29.211 32.1797C27.1563 32.9961 22.2774 32.8125 20 32.8125C17.7227 32.8125 12.8399 32.9961 10.7852 32.1836C10.0743 31.8984 9.543 31.5547 8.99613 31.0039C8.44535 30.4531 8.1016 29.9258 7.81644 29.2148C7.00394 27.1563 7.18753 22.2773 7.18753 20C7.18753 17.7227 7.00394 12.8398 7.81644 10.7852C8.1016 10.0742 8.44535 9.54297 8.99613 8.9961C9.54691 8.44922 10.0743 8.10156 10.7852 7.81641C12.8399 7.00391 17.7227 7.1875 20 7.1875C22.2774 7.1875 27.1602 7.00391 29.2149 7.81641C29.9258 8.10156 30.4571 8.44531 31.0039 8.9961C31.5547 9.54688 31.8985 10.0742 32.1836 10.7852C32.9961 12.8398 32.8125 17.7227 32.8125 20C32.8125 22.2773 32.9961 27.1563 32.1797 29.2109Z" fill="#C13584"/>
</svg>
