<svg width="16" height="16" viewBox="0 0 16 16" fill="none" xmlns="http://www.w3.org/2000/svg">
<path d="M4.22034 11.5891C4.22034 11.9547 4.51877 12.2531 4.88596 12.2531H5.6469V14.1344C5.6469 14.6109 6.02971 15 6.50002 15C6.9719 15 7.35315 14.6125 7.35315 14.1344V12.2516H8.68127V14.1328C8.68127 14.6094 9.06409 14.9985 9.5344 14.9985C10.0063 14.9985 10.3875 14.6109 10.3875 14.1328V12.2516H11.1485C11.5156 12.2516 11.8141 11.9531 11.8141 11.5875V5.41251H4.22034V11.5891V11.5891ZM9.80002 2.21251L10.5016 1.19689C10.5422 1.13751 10.5328 1.05783 10.4781 1.01876C10.4235 0.981263 10.3453 1.00001 10.3047 1.05939L9.57659 2.11564C9.0969 1.92658 8.56252 1.82189 8.00159 1.82189C7.44065 1.82189 6.90627 1.92658 6.42659 2.11564L5.69846 1.06095C5.65784 1.00158 5.57971 0.981263 5.52502 1.02033C5.47034 1.05783 5.46096 1.13595 5.50159 1.19845L6.20315 2.21408C5.08752 2.73283 4.30627 3.71564 4.20627 4.86407H11.8C11.6969 3.71407 10.9141 2.73126 9.80002 2.21251V2.21251ZM6.39846 3.81408C6.31533 3.81408 6.23407 3.78942 6.16495 3.74324C6.09583 3.69706 6.04196 3.63141 6.01014 3.55461C5.97833 3.47781 5.97001 3.3933 5.98623 3.31176C6.00244 3.23023 6.04247 3.15534 6.10126 3.09656C6.16004 3.03778 6.23493 2.99774 6.31646 2.98153C6.398 2.96531 6.48251 2.97363 6.55931 3.00544C6.63611 3.03726 6.70175 3.09113 6.74794 3.16025C6.79412 3.22937 6.81877 3.31063 6.81877 3.39376C6.81849 3.50515 6.77411 3.61189 6.69535 3.69065C6.61659 3.76941 6.50985 3.81379 6.39846 3.81408V3.81408ZM9.65471 3.81408C9.57158 3.81408 9.49032 3.78942 9.4212 3.74324C9.35208 3.69706 9.29821 3.63141 9.26639 3.55461C9.23458 3.47781 9.22626 3.3933 9.24248 3.31176C9.25869 3.23023 9.29872 3.15534 9.35751 3.09656C9.41629 3.03778 9.49118 2.99774 9.57271 2.98153C9.65425 2.96531 9.73876 2.97363 9.81556 3.00544C9.89236 3.03726 9.958 3.09113 10.0042 3.16025C10.0504 3.22937 10.075 3.31063 10.075 3.39376C10.0747 3.50515 10.0304 3.61189 9.9516 3.69065C9.87284 3.76941 9.7661 3.81379 9.65471 3.81408ZM13.1453 5.38751C12.6735 5.38751 12.2922 5.77501 12.2922 6.25314V9.63439C12.2922 10.1109 12.675 10.5 13.1453 10.5C13.6172 10.5 13.9985 10.1125 13.9985 9.63439V6.25158C14 5.77345 13.6188 5.38751 13.1453 5.38751ZM2.85471 5.38751C2.38284 5.38751 2.00159 5.77501 2.00159 6.25314V9.63439C2.00159 10.1109 2.3844 10.5 2.85471 10.5C3.32659 10.5 3.70784 10.1125 3.70784 9.63439V6.25158C3.70784 5.77345 3.32502 5.38751 2.85471 5.38751Z" fill="white"/>
</svg>
