<svg width="40" height="40" viewBox="0 0 40 40" fill="none" xmlns="http://www.w3.org/2000/svg">
<path d="M32.7217 13.3283C32.7433 13.62 32.7433 13.91 32.7433 14.2C32.7433 23.075 25.9883 33.3017 13.6433 33.3017C9.84001 33.3017 6.30668 32.2 3.33334 30.2867C3.87334 30.3483 4.39334 30.37 4.95501 30.37C7.97666 30.3773 10.9128 29.3669 13.29 27.5017C11.889 27.4763 10.531 27.0141 9.40541 26.1796C8.27984 25.345 7.44298 24.1798 7.01168 22.8467C7.42668 22.9083 7.84334 22.95 8.28001 22.95C8.88168 22.95 9.48668 22.8667 10.0483 22.7217C8.52794 22.4147 7.1608 21.5906 6.17937 20.3895C5.19795 19.1884 4.66283 17.6844 4.66501 16.1333V16.05C5.56001 16.5483 6.59834 16.86 7.69834 16.9017C6.77682 16.2893 6.02121 15.4584 5.49891 14.483C4.97661 13.5076 4.70387 12.4181 4.70501 11.3117C4.70501 10.065 5.03668 8.92167 5.61834 7.925C7.30524 10 9.40918 11.6976 11.7939 12.9078C14.1786 14.1179 16.7909 14.8137 19.4617 14.95C19.3583 14.45 19.295 13.9317 19.295 13.4117C19.2946 12.5299 19.4679 11.6568 19.8051 10.8421C20.1424 10.0274 20.6368 9.28713 21.2603 8.66365C21.8838 8.04017 22.624 7.54569 23.4387 7.20846C24.2534 6.87124 25.1266 6.6979 26.0083 6.69833C27.9417 6.69833 29.6867 7.50833 30.9133 8.81833C32.4163 8.5277 33.8576 7.97904 35.1733 7.19667C34.6724 8.74803 33.6229 10.0635 32.2217 10.8967C33.5547 10.7446 34.8574 10.3941 36.0867 9.85667C35.1686 11.1952 34.0309 12.3689 32.7217 13.3283Z" fill="#1DA1F2"/>
</svg>
